<svg width="36" height="32" viewBox="0 0 36 32" fill="none" xmlns="http://www.w3.org/2000/svg">
  <path d="M18.5677 0.120399C16.4361 0.399474 14.5831 0.981892 12.5121 2.02539C10.865 2.85048 10.0657 3.37223 8.68499 4.5492C5.89943 6.91527 3.45299 10.1307 1.91488 13.4189C1.63632 14.0014 1.36988 14.5959 1.29721 14.7294C0.582656 16.2704 -0.277233 20.0075 0.0861003 20.0075C0.146656 20.0075 0.570545 19.7163 1.01866 19.3644C2.84743 17.9327 4.72466 17.0105 6.97732 16.416C8.61232 15.9913 10.2715 15.7729 13.0329 15.6394C16.4603 15.4574 18.4344 15.2997 20.566 15.0206C22.7097 14.7415 26.3067 14.0499 27.4693 13.6737C28.6683 13.2976 30.5455 12.3148 31.7688 11.4411C33.0526 10.5068 35.0509 8.67466 35.5353 7.9709C35.8502 7.52196 35.8623 7.47342 35.6685 7.32782C35.5595 7.25501 34.7966 7.12154 33.9851 7.03661C33.1615 6.96381 31.9262 6.83034 31.2238 6.75753C29.3465 6.56339 23.0972 6.56339 21.4138 6.76967C18.059 7.17008 16.8358 7.41275 14.8253 8.10437L13.4325 8.57759L13.699 8.23784C14.6073 7.10941 16.969 5.95671 19.6577 5.32576C22.637 4.622 26.9607 4.34293 31.03 4.5856C32.4349 4.6584 33.755 4.75547 33.9488 4.80401L34.3121 4.87681L33.8882 4.41573C33.0283 3.5057 31.5629 2.61994 28.9832 1.49151C28.5109 1.28523 26.9001 0.775618 25.9312 0.532944C23.9813 0.0475963 20.566 -0.146542 18.5677 0.120399Z" fill="#5CB950"/>
  <path d="M17.229 31.8796C19.3605 31.6005 21.2135 31.0181 23.2845 29.9746C24.9316 29.1495 25.731 28.6278 27.1116 27.4508C29.8972 25.0847 32.3436 21.8693 33.8817 18.5811C34.1603 17.9986 34.4267 17.4041 34.4994 17.2706C35.214 15.7296 36.0738 11.9925 35.7105 11.9925C35.65 11.9925 35.2261 12.2837 34.778 12.6356C32.9492 14.0673 31.072 14.9895 28.8193 15.584C27.1843 16.0087 25.5251 16.2271 22.7637 16.3606C19.3363 16.5426 17.3622 16.7003 15.2306 16.9794C13.087 17.2585 9.48996 17.9501 8.32729 18.3263C7.12829 18.7024 5.25107 19.6852 4.02785 20.5589C2.74407 21.4932 0.745736 23.3253 0.261291 24.0291C-0.0535975 24.478 -0.0657109 24.5266 0.128067 24.6722C0.237067 24.745 1.00007 24.8785 1.81151 24.9634C2.63507 25.0362 3.8704 25.1697 4.57285 25.2425C6.45007 25.4366 12.6994 25.4366 14.3828 25.2303C17.7376 24.8299 18.9608 24.5872 20.9713 23.8956L22.3641 23.4224L22.0976 23.7622C21.1893 24.8906 18.8276 26.0433 16.139 26.6742C13.1596 27.378 8.83596 27.6571 4.76663 27.4144C3.36174 27.3416 2.04162 27.2445 1.84785 27.196L1.48451 27.1232L1.9084 27.5843C2.76829 28.4943 4.23373 29.3801 6.8134 30.5085C7.28573 30.7148 8.89651 31.2244 9.8654 31.4671C11.8153 31.9524 15.2306 32.1465 17.229 31.8796Z" fill="#5CB950"/>
</svg>